<svg width="28" height="28" viewBox="0 0 28 28" fill="none" xmlns="http://www.w3.org/2000/svg">
<path d="M14 0C6.28048 0 0 6.28048 0 14C0 21.7195 6.28048 28 14 28C21.7195 28 28 21.7195 28 14C28 6.28048 21.7195 0 14 0ZM10.6198 7.86289C11.4726 6.95894 12.6727 6.46154 14 6.46154C15.3273 6.46154 16.5166 6.96231 17.3728 7.87096C18.2404 8.79173 18.6624 10.0288 18.5628 11.3588C18.3636 14 16.3174 16.1538 14 16.1538C11.6826 16.1538 9.6324 14 9.43721 11.3582C9.33827 10.0174 9.75962 8.77625 10.6198 7.86289ZM14 25.8462C12.4186 25.8472 10.8531 25.5307 9.39626 24.9154C7.93946 24.3 6.62106 23.3984 5.51923 22.264C6.15028 21.3641 6.95433 20.599 7.88442 20.0133C9.6001 18.9135 11.7714 18.3077 14 18.3077C16.2286 18.3077 18.3999 18.9135 20.1136 20.0133C21.0444 20.5987 21.8492 21.3639 22.4808 22.264C21.379 23.3986 20.0606 24.3002 18.6038 24.9156C17.147 25.5309 15.5814 25.8474 14 25.8462Z" fill="#55371F"/>
</svg>
