<svg width="256" height="256" viewBox="0 0 256 256" fill="none" xmlns="http://www.w3.org/2000/svg">
<g clip-path="url(#clip0_658_357)">
<path d="M256 0H0V256H256V0Z" fill="#8F8F8F"/>
<path d="M90.9155 65.7771L82.0266 56.8882H216.889V191.75L208 182.862V176.728L180.302 149.022L176.791 151.653L170.444 145.306L178.035 139.617C178.895 138.972 179.959 138.658 181.032 138.733C182.104 138.808 183.114 139.267 183.875 140.026L208 164.15V65.7771H90.9155ZM47.9999 199.11V194.497L74.1955 168.302C76.0607 169.248 78.1217 169.744 80.2132 169.75C81.8609 169.751 83.4924 169.426 85.0135 168.793C86.5346 168.16 87.9152 167.231 89.0755 166.062L114.995 140.142L108.72 133.857L82.7999 159.777C82.3797 160.152 81.8886 160.439 81.3555 160.621C80.8225 160.803 80.2583 160.877 79.6965 160.837C79.1346 160.797 78.5864 160.645 78.0843 160.39C77.5822 160.134 77.1364 159.781 76.7732 159.35C75.9294 158.54 74.8016 158.093 73.6317 158.104C72.4617 158.116 71.343 158.586 70.5155 159.413L47.9999 181.928V73.1371L39.111 64.2482V207.999H182.862L173.973 199.11H47.9999ZM172.444 96.8882C172.444 99.5253 171.662 102.103 170.197 104.296C168.732 106.488 166.65 108.197 164.213 109.207C161.777 110.216 159.096 110.48 156.51 109.965C153.923 109.451 151.548 108.181 149.683 106.316C147.818 104.452 146.548 102.076 146.034 99.4894C145.519 96.903 145.783 94.2221 146.793 91.7858C147.802 89.3494 149.511 87.267 151.703 85.802C153.896 84.3369 156.474 83.5549 159.111 83.5549C162.647 83.5549 166.039 84.9596 168.539 87.4601C171.04 89.9606 172.444 93.352 172.444 96.8882ZM163.555 96.8882C163.555 96.0092 163.295 95.1499 162.806 94.419C162.318 93.6881 161.624 93.1185 160.812 92.7821C160 92.4457 159.106 92.3577 158.244 92.5292C157.382 92.7007 156.59 93.1239 155.968 93.7455C155.347 94.3671 154.923 95.159 154.752 96.0211C154.58 96.8833 154.669 97.7769 155.005 98.589C155.341 99.4011 155.911 100.095 156.642 100.584C157.373 101.072 158.232 101.333 159.111 101.333C160.29 101.333 161.42 100.864 162.254 100.031C163.087 99.1974 163.555 98.067 163.555 96.8882ZM213.742 220.035L220.027 213.75L42.2488 35.9727L35.9644 42.2571L213.742 220.035Z" fill="#4A4A4A" stroke="#4A4A4A" stroke-width="8.88889"/>
</g>
<defs>
<clipPath id="clip0_658_357">
<rect width="256" height="256" fill="white"/>
</clipPath>
</defs>
</svg>
